<svg width="199.99999999999997" height="199.99999999999997" xmlns="http://www.w3.org/2000/svg">
 <!-- Created with Method Draw - http://github.com/duopixel/Method-Draw/ -->
 <defs>
  <radialGradient fy="0.30078" fx="0.14063" r="1.12509" cy="0" cx="0" spreadMethod="pad" id="svg_1">
   <stop offset="0" stop-color="#ffffff"/>
   <stop offset="0.8125" stop-color="#000000"/>
  </radialGradient>
  <radialGradient r="1.62316" cy="0" cx="0" spreadMethod="pad" id="svg_2">
   <stop offset="0.32813" stop-color="#000000"/>
   <stop offset="1" stop-color="#ffffff"/>
  </radialGradient>
 </defs>
 <g>
  <title>background</title>
 </g>
 <g>
  <title>Layer 1</title>
  <path id="svg_3" d="m102.32153,77.22338c-12.46071,0 -22.55759,10.09688 -22.55759,22.5576c0,12.45493 10.09688,22.55759 22.55759,22.55759c18.36525,-0.70373 23.55759,-16.00546 22.55759,-22.55759c0,-12.46072 -10.09688,-22.5576 -22.55759,-22.5576zm-0.08669,-61.05519c-46.39246,0 -84.00001,37.60755 -84.00001,84.00002c0,46.39247 37.60755,84.00002 84.00001,84.00002c46.39246,0 84,-37.60755 84,-84.00002c0,-46.39247 -37.60754,-84.00002 -84,-84.00002zm58.80115,111.79389c-1.39287,2.91289 -2.96491,5.72175 -4.77391,8.38035l-18.25182,-3.92432c-2.77996,3.04005 -5.94716,5.74488 -9.44379,8.00468l0.68777,18.50613c-2.93023,1.3293 -5.94138,2.43319 -9.06812,3.29434l-11.29902,-14.52979c-2.14999,0.29476 -4.33466,0.49704 -6.56557,0.49704c-2.05752,0 -4.08036,-0.16761 -6.07431,-0.42769l-11.24123,14.44889c-3.12673,-0.87272 -6.15522,-1.97661 -9.07389,-3.28857l0.6762,-18.18247c-3.66423,-2.30026 -6.98169,-5.08601 -9.89459,-8.24742l-17.76634,3.80294c-1.809,-2.63547 -3.36948,-5.4559 -4.77391,-8.36879l12.06771,-13.34499c-1.30618,-4.06302 -2.04597,-8.38613 -2.22513,-12.84794l-15.9978,-8.46127c0.31787,-3.25389 0.95363,-6.39796 1.73964,-9.4958l17.82414,-2.46787c1.67607,-4.05725 3.9012,-7.81396 6.55979,-11.22389l-6.83143,-16.76649c2.30604,-2.24824 4.79703,-4.29998 7.41517,-6.18412l15.39094,9.66341c3.75671,-1.94771 7.79662,-3.42727 12.05037,-4.33466l5.5946,-17.34444c1.60672,-0.12137 3.20765,-0.24274 4.83749,-0.24274c1.62983,0 3.23655,0.12715 4.83748,0.24274l5.64084,17.50049c4.16128,0.94206 8.09716,2.40429 11.76717,4.33466l15.62791,-9.8079c2.62969,1.88414 5.12646,3.93588 7.42672,6.18412l-7.02793,17.25775c2.47365,3.25966 4.58318,6.82565 6.17256,10.66327l18.40787,2.54878c0.78024,3.09206 1.42755,6.2477 1.74542,9.49581l-16.56997,8.7618c-0.1965,4.19596 -0.86693,8.26476 -2.05174,12.13706l12.46071,13.7669z" stroke-width="5" stroke="url(#svg_2)" fill="url(#svg_1)"/>
 </g>
</svg>